<?xml version="1.0" encoding="UTF-8"?>
<svg version="1.1" xmlns="http://www.w3.org/2000/svg" width="512" height="512">
<path d="M0 0 C3 2 3 2 3.78222656 4.5703125 C3.98299805 5.74335937 4.18376953 6.91640625 4.390625 8.125 C4.50883606 8.80747803 4.62704712 9.48995605 4.74884033 10.19311523 C5.18733336 12.79235526 5.59608575 15.39515633 6 18 C6.17378174 19.11874512 6.34756348 20.23749023 6.52661133 21.39013672 C7.77128687 29.48186268 8.96115098 37.58062079 10.12646484 45.68408203 C10.64707214 49.30064671 11.18071757 52.9151656 11.71720505 56.52940369 C12.13264419 59.34409623 12.53861413 62.16009703 12.94205475 64.97653198 C13.22737684 66.9515581 13.52259249 68.92514694 13.8180542 70.89868164 C15.03334145 79.51259865 15.59967601 86.40852169 11.734375 94.44921875 C11.26330322 95.44671143 10.79223145 96.4442041 10.30688477 97.47192383 C9.79311279 98.53306396 9.27934082 99.5942041 8.75 100.6875 C7.64814388 103.01747522 6.54794257 105.34823357 5.44921875 107.6796875 C5.16477402 108.27999283 4.88032928 108.88029816 4.58726501 109.49879456 C1.48240849 116.06001214 -1.48113436 122.68323727 -4.4375 129.3125 C-4.98562495 130.53895942 -5.53388425 131.7653588 -6.08227539 132.99169922 C-7.18247172 135.45250155 -8.28195548 137.91362026 -9.38085938 140.375 C-11.97806938 146.18974279 -14.58255528 152.00121906 -17.1875 157.8125 C-17.70715332 158.97217285 -18.22680664 160.1318457 -18.76220703 161.32666016 C-22.01497718 168.58254106 -25.27470048 175.83526419 -28.5390625 183.0859375 C-28.93327896 183.96160873 -29.32749542 184.83727997 -29.73365784 185.73948669 C-31.67420535 190.04969924 -33.6153418 194.35964522 -35.55737305 198.66918945 C-40.40523658 209.43128346 -45.21624248 220.20925948 -50 231 C-48.97165039 231.50088135 -47.94330078 232.0017627 -46.88378906 232.51782227 C-30.04758372 240.78963056 -17.48147846 253.00380707 -11 271 C-9.83250212 275.30426931 -8.85577933 279.62369757 -8 284 C-6.69289063 284.14695312 -6.69289063 284.14695312 -5.359375 284.296875 C15.85550115 286.96021443 33.51403776 295.77972601 46.86328125 312.84375 C58.29344791 329.72779874 63.20930524 348.38672045 60.50390625 368.73046875 C56.63747639 388.41212584 46.51883242 405.67414463 29.90625 417.15234375 C16.01231792 425.98544842 2.07659298 429.62385322 -14.25546265 429.5146637 C-15.62160919 429.52000605 -16.98774984 429.52708132 -18.35387957 429.53571075 C-22.06121951 429.55414199 -25.7681547 429.54810167 -29.47551012 429.53755772 C-33.49200323 429.53050944 -37.5084178 429.54660597 -41.52488708 429.55955505 C-49.37527346 429.58110722 -57.22551438 429.58109077 -65.07592057 429.57292951 C-71.46177725 429.56660873 -77.84759177 429.56778552 -84.23344803 429.57420158 C-85.14515196 429.57510324 -86.05685589 429.57600489 -86.99618722 429.57693387 C-88.84879379 429.57878523 -90.70140034 429.58064779 -92.55400689 429.58252143 C-109.89492362 429.59906945 -127.2357588 429.59040643 -144.5766706 429.57353585 C-160.41052688 429.55884333 -176.24419331 429.57346633 -192.07802515 429.60230602 C-208.37225158 429.63176117 -224.66639059 429.64265438 -240.96064246 429.63312382 C-242.8067351 429.63210136 -244.65282776 429.63110674 -246.49892044 429.6301403 C-247.40702402 429.62966391 -248.31512759 429.62918752 -249.25074946 429.6286967 C-255.62093949 429.62654055 -261.99104598 429.63629396 -268.3612175 429.65091133 C-276.13602048 429.6685044 -283.91058166 429.66821798 -291.68537544 429.64555968 C-295.64510478 429.6344801 -299.60440925 429.63111033 -303.56411934 429.64986038 C-329.30326423 429.76259556 -351.03373574 427.42406745 -370.46484375 408.765625 C-385.54998945 392.30910242 -392.11779599 372.41614776 -391.17041016 350.29492188 C-389.76715064 331.39715767 -380.44563438 314.84360993 -366.875 301.875 C-354.97799776 291.75947658 -339.76052633 284.69097007 -324 285 C-323.92523438 284.29617188 -323.85046875 283.59234375 -323.7734375 282.8671875 C-322.08684987 270.20124507 -317.37314263 259.61573228 -309 250 C-308.37351562 249.175 -307.74703125 248.35 -307.1015625 247.5 C-297.54303489 236.12926083 -281.59191916 229.14953443 -267.02636719 227.81982422 C-252.46239273 226.85922165 -238.68769574 229.55817846 -226 237 C-225.52691406 236.10539063 -225.05382812 235.21078125 -224.56640625 234.2890625 C-215.67513791 217.87108378 -204.49224189 206.9799756 -187 200 C-185.72576172 199.48566406 -185.72576172 199.48566406 -184.42578125 198.9609375 C-171.43976136 194.59828717 -155.89494086 196.04680645 -143 200 C-142.82771378 199.45078384 -142.65542755 198.90156769 -142.47792053 198.33570862 C-140.70309473 192.82817037 -138.60122929 187.59319336 -136.18359375 182.33984375 C-135.81505783 181.52912415 -135.44652191 180.71840454 -135.06681824 179.88311768 C-133.86106107 177.23272856 -132.6492129 174.58517079 -131.4375 171.9375 C-130.58654589 170.06900798 -129.73613151 168.20027008 -128.88623047 166.33129883 C-127.57169298 163.44071243 -126.25684272 160.55027325 -124.94036865 157.66056824 C-120.47124388 147.8499801 -116.04475952 138.02040306 -111.625 128.1875 C-110.87079927 126.51056547 -110.1165677 124.8336448 -109.36230469 123.15673828 C-102.00029008 106.78663582 -94.6509138 90.41080507 -87.32887268 74.02278137 C-86.13315478 71.34702281 -84.93645789 68.67170265 -83.73965454 65.99642944 C-83.1714309 64.72551212 -82.60368761 63.45437989 -82.03646851 62.18301392 C-81.25206242 60.42486437 -80.46590798 58.66749518 -79.6796875 56.91015625 C-79.01042236 55.41174194 -79.01042236 55.41174194 -78.32763672 53.88305664 C-73.57175466 43.55532379 -66.73446525 39.3751341 -57.41915894 33.40620422 C-50.2210843 28.79242981 -43.11209219 24.06430503 -36.0546875 19.23828125 C-33.51681107 17.51198829 -30.97818156 15.78680725 -28.43945312 14.06176758 C-26.70842372 12.8809959 -24.98095542 11.69498898 -23.25683594 10.50415039 C-20.72022191 8.75458948 -18.17036429 7.02604942 -15.6171875 5.30078125 C-14.85356903 4.76657059 -14.08995056 4.23235992 -13.30319214 3.68196106 C-8.74259039 0.63257979 -5.67036176 -0.8216705 0 0 Z M-12.99731445 20.59863281 C-14.26917351 21.45016937 -14.26917351 21.45016937 -15.56672668 22.31890869 C-16.48958969 22.94070007 -17.4124527 23.56249146 -18.36328125 24.203125 C-19.30680954 24.83732361 -20.25033783 25.47152222 -21.22245789 26.12493896 C-23.22489676 27.4722017 -25.22648362 28.8207315 -27.22729492 30.17041016 C-30.28558867 32.23186035 -33.34867782 34.28603908 -36.41210938 36.33984375 C-38.35446618 37.64799288 -40.29653293 38.95657283 -42.23828125 40.265625 C-43.15507156 40.87931946 -44.07186188 41.49301392 -45.01643372 42.12530518 C-45.87379623 42.70560486 -46.73115875 43.28590454 -47.61450195 43.88378906 C-48.36649368 44.3900885 -49.11848541 44.89638794 -49.89326477 45.41802979 C-52.14441883 47.10844566 -54.0566738 48.96734976 -56 51 C-41.47019235 59.29303641 -27.00159942 67.15321613 -11.125 72.5625 C-10.35736328 72.82643555 -9.58972656 73.09037109 -8.79882812 73.36230469 C-4.43687636 74.83607984 -4.43687636 74.83607984 0 74 C-2.64 55.52 -5.28 37.04 -8 18 C-9.89462061 18 -11.48060903 19.5806561 -12.99731445 20.59863281 Z M-66 61 C-73.03592157 75.97144642 -79.93196678 90.99705944 -86.625 106.125 C-92.58306059 119.59131807 -98.60842978 133.02535717 -104.6875 146.4375 C-106.28657595 149.96609255 -107.88557021 153.49472208 -109.484375 157.0234375 C-109.86910477 157.87254196 -110.25383453 158.72164642 -110.65022278 159.59648132 C-114.26446639 167.57687807 -117.85649472 175.56714044 -121.4375 183.5625 C-121.95078857 184.708396 -122.46407715 185.85429199 -122.99291992 187.03491211 C-123.91609133 189.09761589 -124.83651247 191.16155408 -125.75341797 193.22705078 C-126.57149297 195.04681105 -127.40853332 196.85818781 -128.26611328 198.65966797 C-128.64364746 199.46162598 -129.02118164 200.26358398 -129.41015625 201.08984375 C-129.74281494 201.77812256 -130.07547363 202.46640137 -130.41821289 203.17553711 C-131.26104948 205.19934978 -131.26104948 205.19934978 -130 208 C-128.54284143 209.19984287 -127.03357952 210.3370147 -125.5 211.4375 C-119.38755418 216.14954397 -115.35342122 221.69069389 -111 228 C-107.88238659 224.31944227 -106.12559108 220.19407624 -104.18359375 215.828125 C-103.81505783 215.01033066 -103.44652191 214.19253632 -103.06681824 213.34996033 C-101.85235769 210.65205349 -100.64493425 207.95105782 -99.4375 205.25 C-98.58753744 203.35827279 -97.73710757 201.46675549 -96.88623047 199.57543945 C-95.12547999 195.65969534 -93.36751267 191.74271984 -91.61181641 187.82470703 C-89.14765853 182.32672221 -86.67499987 176.83260269 -84.19921875 171.33984375 C-80.12095205 162.29033215 -76.04919968 153.23790862 -71.98120117 144.18377686 C-71.05859853 142.13041782 -70.1357709 140.07716005 -69.21289062 138.02392578 C-66.04903038 130.98378905 -62.89327626 123.94007196 -59.74365234 116.89355469 C-58.09386657 113.20605243 -56.43555166 109.52241105 -54.77722168 105.83874512 C-53.27799694 102.50535729 -51.78359004 99.16982289 -50.2901001 95.8338623 C-49.5596009 94.20480664 -48.82716196 92.57661931 -48.0927124 90.94934082 C-47.07095286 88.68465405 -46.05618667 86.41695594 -45.04296875 84.1484375 C-44.73430374 83.46862823 -44.42563873 82.78881897 -44.10762024 82.08840942 C-42.82816375 79.20702785 -42 77.19114695 -42 74 C-42.52432617 73.71278076 -43.04865234 73.42556152 -43.58886719 73.12963867 C-45.97766458 71.81875837 -48.36384308 70.50318008 -50.75 69.1875 C-51.575 68.73568359 -52.4 68.28386719 -53.25 67.81835938 C-54.04921875 67.37685547 -54.8484375 66.93535156 -55.671875 66.48046875 C-56.4050293 66.07723389 -57.13818359 65.67399902 -57.89355469 65.25854492 C-60 64 -60 64 -62.14550781 62.3449707 C-63.88802633 60.8042999 -63.88802633 60.8042999 -66 61 Z M-29 80 C-38.06260677 99.97217992 -47.11885015 119.94633232 -56 140 C-61.83491348 153.17368209 -67.74229366 166.31323227 -73.6875 179.4375 C-74.49264822 181.21620285 -75.29774317 182.99492982 -76.1027832 184.77368164 C-79.4346684 192.13417139 -82.76846206 199.49374982 -86.11515808 206.84751892 C-87.35726789 209.57962595 -88.59498631 212.31370477 -89.83145142 215.04837036 C-90.6651358 216.88814665 -91.50472926 218.72524168 -92.34448242 220.56225586 C-93.0769519 222.18466187 -93.0769519 222.18466187 -93.82421875 223.83984375 C-94.45976685 225.23771118 -94.45976685 225.23771118 -95.1081543 226.66381836 C-96.17832445 229.05034815 -96.17832445 229.05034815 -96 232 C-95.41992188 231.86722656 -94.83984375 231.73445312 -94.2421875 231.59765625 C-93.07042969 231.33275391 -93.07042969 231.33275391 -91.875 231.0625 C-91.10929687 230.88847656 -90.34359375 230.71445312 -89.5546875 230.53515625 C-83.73668031 229.31639939 -78.0485025 228.74371496 -72.125 228.4375 C-70.949375 228.37272461 -70.949375 228.37272461 -69.75 228.30664062 C-67.83349351 228.20146649 -65.91676667 228.10032075 -64 228 C-55.62664098 209.79265584 -47.32219466 191.55844286 -39.21157837 173.23239136 C-33.6027766 160.56227467 -27.91089939 147.93123293 -22.1875 135.3125 C-15.35702895 120.25174264 -8.59589306 105.16532462 -2 90 C-4.45195106 87.54804894 -6.36112974 87.08893917 -9.6640625 86.0546875 C-10.78554688 85.70019531 -11.90703125 85.34570312 -13.0625 84.98046875 C-14.8259375 84.43326172 -14.8259375 84.43326172 -16.625 83.875 C-17.80835938 83.50246094 -18.99171875 83.12992187 -20.2109375 82.74609375 C-23.13893715 81.82519063 -26.06862376 80.91008639 -29 80 Z M-203.95703125 227.50390625 C-207.36412888 231.66668901 -209.75824668 236.1304961 -212 241 C-212.34804687 241.639375 -212.69609375 242.27875 -213.0546875 242.9375 C-214.02618844 244.83109151 -214.02618844 244.83109151 -214 248 C-212.52462998 250.44386445 -210.82249084 252.50864701 -208.9609375 254.671875 C-205.02890537 259.34018406 -202.24122335 263.82898989 -201.5625 269.9375 C-202 273 -202 273 -204 275 C-210.26032839 275.56912076 -210.26032839 275.56912076 -212.55859375 273.80078125 C-214.30083731 271.62415718 -215.40395097 269.38136379 -216.625 266.875 C-222.96198588 255.10187428 -233.50933909 247.19877404 -246.1875 243.0625 C-260.88809797 239.63236047 -274.50262938 241.94761664 -287.46875 249.4140625 C-298.2999072 256.2002505 -305.88843651 266.56899881 -309 279 C-309.71479919 282.76489965 -310.35415133 286.54157099 -310.87426758 290.33837891 C-311.15707784 292.2416332 -311.57006713 294.12449573 -312 296 C-315.52848574 298.35232383 -317.25130881 298.28349297 -321.4375 298.4375 C-338.37366467 299.48294226 -351.46695413 305.35964544 -363 318 C-374.07638748 331.9616922 -378.16416803 347.29171081 -377 365 C-374.80132515 380.70748217 -366.19275952 394.80127164 -353.625 404.375 C-340.01527501 413.60545149 -325.69986717 416.4733749 -309.4140625 416.38095093 C-308.12157593 416.3856309 -306.82908936 416.39031087 -305.49743652 416.39513266 C-301.95311686 416.40752247 -298.40904313 416.401528 -294.86472321 416.39217401 C-291.02552217 416.38533388 -287.18636088 416.39588912 -283.34716797 416.40411377 C-275.84324226 416.41740079 -268.33940697 416.41459592 -260.83547783 416.40587585 C-254.73275897 416.3990798 -248.63006531 416.39819086 -242.52734375 416.4014473 C-241.65626858 416.401907 -240.78519341 416.40236669 -239.88772202 416.40284032 C-238.11773172 416.40379957 -236.34774144 416.40477221 -234.57775116 416.4057581 C-218.00998276 416.41429725 -201.4422643 416.40450106 -184.87450409 416.388357 C-170.68193607 416.37495516 -156.48944169 416.37728367 -142.296875 416.39111328 C-125.78532704 416.40719521 -109.27382276 416.41347342 -92.76226807 416.40427649 C-90.99906413 416.40332092 -89.2358602 416.40237781 -87.47265625 416.4014473 C-86.6052972 416.40098447 -85.73793816 416.40052164 -84.8442955 416.40004479 C-78.75425918 416.39746273 -72.66425075 416.40180892 -66.57421875 416.40888596 C-59.14483741 416.41733025 -51.71555106 416.41495956 -44.2861805 416.39904372 C-40.50109764 416.39120022 -36.71617273 416.38800178 -32.93109131 416.39799118 C-28.81590462 416.40868691 -24.70111114 416.39585158 -20.5859375 416.38095093 C-19.40672729 416.38764309 -18.22751709 416.39433526 -17.01257324 416.40123022 C1.09092231 416.27477593 17.90978599 410.93543107 31 398 C37.44101617 390.72289038 41.92496356 383.21218898 45 374 C45.36738281 372.91525391 45.36738281 372.91525391 45.7421875 371.80859375 C49.81948589 357.09122217 46.81831213 341.16878692 39.78515625 327.94921875 C31.77786546 314.7205436 19.64191969 304.34166213 4.625 300.03125 C-0.02375116 298.91056892 -4.20516551 298 -9 298 C-9.18175781 298.9178125 -9.36351562 299.835625 -9.55078125 300.78125 C-12.22868379 313.85490754 -12.22868379 313.85490754 -15 320 C-18.01324195 321.50662097 -20.68286377 321.17770373 -24 321 C-26 319 -26 319 -26.375 316.1875 C-26.29882875 312.50081161 -25.19362218 309.40831626 -24 305.9375 C-19.49651815 291.89628693 -22.22585373 279.19129155 -28.6875 266.25 C-35.55534609 254.42491162 -46.56474328 246.67215348 -59.53125 242.6953125 C-71.01857519 240.39267299 -82.27367121 241.22566968 -93 246 C-94.33417969 246.45632813 -94.33417969 246.45632813 -95.6953125 246.921875 C-98.39302075 248.02125454 -100.05375709 248.82039463 -102 251 C-102.66261147 254.44298117 -102.75358076 257.53806704 -102.609375 261.0390625 C-103 264 -103 264 -105.140625 266.0234375 C-108.80041597 267.27336611 -110.52959326 266.53343554 -114 265 C-114.17015625 263.81664062 -114.3403125 262.63328125 -114.515625 261.4140625 C-116.97181998 245.06193143 -121.39496568 231.50445123 -134.73046875 220.5625 C-157.07619559 205.17817859 -185.18440015 207.80095007 -203.95703125 227.50390625 Z " fill="#FFD064" transform="translate(433,67)"/>
<path d="M0 0 C13.82327528 12.91855558 19.10886518 28.64759048 20.80859375 47.015625 C20.88016328 49.1865674 20.77952151 51.2368399 20.56640625 53.3984375 C20.47359375 54.378125 20.38078125 55.3578125 20.28515625 56.3671875 C18.30252431 72.38075316 11.17155176 85.03286633 1.3984375 97.5625 C-3.45249538 105.07161998 -3.85798902 111.67149115 -3.93359375 120.3984375 C-4.07272858 136.45857179 -4.07272858 136.45857179 -9.40625 142.7109375 C-10.09589844 143.2678125 -10.78554687 143.8246875 -11.49609375 144.3984375 C-12.18832031 144.9759375 -12.88054687 145.5534375 -13.59375 146.1484375 C-15.43359375 147.3984375 -15.43359375 147.3984375 -17.43359375 147.3984375 C-17.38138672 148.80996094 -17.38138672 148.80996094 -17.328125 150.25 C-17.30105469 151.49523437 -17.27398437 152.74046875 -17.24609375 154.0234375 C-17.19388672 155.86808594 -17.19388672 155.86808594 -17.140625 157.75 C-17.58636438 163.30094113 -19.59909851 166.56394226 -23.43359375 170.3984375 C-24.46904037 172.72363983 -24.46904037 172.72363983 -25.30859375 175.2734375 C-26.99177061 179.67657696 -28.74847482 182.34248522 -32.43359375 185.3984375 C-33.15546875 186.0790625 -33.87734375 186.7596875 -34.62109375 187.4609375 C-43.04939726 193.26710214 -51.31485291 194.50499653 -61.43359375 193.3984375 C-69.07760752 191.74858012 -75.44838193 188.5032096 -80.43359375 182.3984375 C-82.38544503 179.19068191 -84.12848622 175.94735636 -85.79296875 172.58203125 C-87.35553436 169.33659136 -87.35553436 169.33659136 -89.61328125 166.47265625 C-92.41921142 161.73388577 -91.82326686 157.24368327 -91.76953125 151.859375 C-92.09057599 148.16433172 -92.09057599 148.16433172 -95.30078125 146.1015625 C-96.33460937 145.53953125 -97.3684375 144.9775 -98.43359375 144.3984375 C-103.46325862 139.59739376 -104.81365661 135.27326283 -105.43359375 128.3984375 C-105.46306702 126.08612533 -105.46145317 123.77326968 -105.43359375 121.4609375 C-105.26999534 107.74841656 -108.57285346 99.29770127 -116.93359375 88.5859375 C-121.32243743 82.83378191 -124.14065989 77.24127148 -126.43359375 70.3984375 C-126.75199219 69.48964844 -127.07039063 68.58085937 -127.3984375 67.64453125 C-132.42823275 50.97898846 -129.94975485 32.6972142 -122.74609375 17.0859375 C-113.78239939 0.58916335 -99.45341801 -10.38795514 -81.55859375 -15.8203125 C-53.19038584 -23.93805996 -22.71767 -19.45382267 0 0 Z M-102.43359375 13.3984375 C-103.02011719 13.97464844 -103.60664062 14.55085938 -104.2109375 15.14453125 C-114.21759152 25.76227864 -116.03481234 39.76544069 -115.75 53.6875 C-115.46182417 59.72834065 -113.97915121 64.92213954 -111.43359375 70.3984375 C-110.90765625 71.53925781 -110.90765625 71.53925781 -110.37109375 72.703125 C-108.01194383 77.30674394 -105.04093635 81.25671383 -101.87109375 85.3359375 C-95.86678023 93.15852899 -92.36922933 101.18677373 -92.2578125 111.08203125 C-92.23396484 112.17451172 -92.21011719 113.26699219 -92.18554688 114.39257812 C-92.14265477 116.68405646 -92.11136258 118.97578192 -92.09179688 121.26757812 C-92.06408203 122.36134766 -92.03636719 123.45511719 -92.0078125 124.58203125 C-91.99322998 125.57775146 -91.97864746 126.57347168 -91.96362305 127.59936523 C-91.27477372 131.23716233 -90.04459682 132.78711425 -87.43359375 135.3984375 C-84.45010902 136.1465674 -84.45010902 136.1465674 -81.07617188 136.02954102 C-79.78803589 136.04207413 -78.4998999 136.05460724 -77.17272949 136.06752014 C-75.77009063 136.05525183 -74.36746144 136.04183181 -72.96484375 136.02734375 C-71.52282533 136.02817266 -70.080807 136.03063287 -68.63879395 136.03465271 C-65.61909486 136.03750929 -62.60013809 136.02282494 -59.58056641 135.99536133 C-55.71319423 135.96127726 -51.84714915 135.96729721 -47.97971344 135.9860239 C-45.00275648 135.99660135 -42.02610742 135.98764963 -39.04917908 135.97263908 C-37.623458 135.96746217 -36.19770469 135.96793315 -34.77198792 135.97418404 C-32.7782881 135.97964408 -30.78457226 135.95639354 -28.79101562 135.93188477 C-27.65724487 135.92568619 -26.52347412 135.91948761 -25.35534668 135.9131012 C-21.7981941 135.28651252 -20.6122908 134.22698925 -18.43359375 131.3984375 C-17.86112938 128.91695469 -17.86112938 128.91695469 -17.96484375 126.21484375 C-17.95372559 125.2108252 -17.94260742 124.20680664 -17.93115234 123.17236328 C-17.93236084 121.58270752 -17.93236084 121.58270752 -17.93359375 119.9609375 C-17.62101193 105.66935649 -15.39881368 95.8633938 -6.43359375 84.3984375 C3.04918063 72.06476507 7.81111411 59.03617564 6.56640625 43.3984375 C5.09827606 33.85917209 2.36126266 25.23168561 -3.43359375 17.3984375 C-3.88476562 16.76679687 -4.3359375 16.13515625 -4.80078125 15.484375 C-14.63383149 2.87362695 -31.04559538 -3.47583656 -46.43359375 -5.6015625 C-68.0039298 -6.89918627 -86.81290442 -2.44580374 -102.43359375 13.3984375 Z M-78.43359375 149.3984375 C-79.02987854 156.57854591 -79.02987854 156.57854591 -77.43359375 159.3984375 C-71.04322144 159.42370812 -64.65286192 159.44127067 -58.26245117 159.45336914 C-56.08666502 159.45841058 -53.91088228 159.46524357 -51.73510742 159.47387695 C-48.61506308 159.48595088 -45.49506337 159.49166755 -42.375 159.49609375 C-41.39584122 159.50125504 -40.41668243 159.50641632 -39.40785217 159.51173401 C-38.50699387 159.51180954 -37.60613556 159.51188507 -36.67797852 159.51196289 C-35.88077896 159.5141835 -35.08357941 159.51640411 -34.26222229 159.51869202 C-32.41437094 159.59894206 -32.41437094 159.59894206 -31.43359375 158.3984375 C-31.43359375 155.4284375 -31.43359375 152.4584375 -31.43359375 149.3984375 C-46.94359375 149.3984375 -62.45359375 149.3984375 -78.43359375 149.3984375 Z M-69.43359375 172.3984375 C-63.27036671 178.63399226 -63.27036671 178.63399226 -55.18359375 179.7734375 C-49.97723042 179.68270999 -45.56801437 178.70376308 -41.43359375 175.3984375 C-41.10359375 174.4084375 -40.77359375 173.4184375 -40.43359375 172.3984375 C-50.00359375 172.3984375 -59.57359375 172.3984375 -69.43359375 172.3984375 Z " fill="#FFD064" transform="translate(190.43359375,81.6015625)"/>
<path d="M0 0 C3.27939642 2.02498249 6.11946776 4.44852681 9 7 C9.89912109 7.75796875 9.89912109 7.75796875 10.81640625 8.53125 C23.25290284 19.84240236 30.05640074 36.39039529 31.203125 52.9296875 C31.30648958 59.42442876 30.78927579 65.66368718 29.75 72.0625 C29.64075195 72.78872559 29.53150391 73.51495117 29.41894531 74.26318359 C28.62924271 78.68738363 27.65187949 81.29541256 24 84 C21 84.5625 21 84.5625 18 84 C15.5625 82 15.5625 82 14 79 C14.1404419 76.09753397 14.43395572 73.79635548 15 71 C17.46250024 55.64558673 16.31844821 41.71261739 7.7734375 28.41796875 C3.83571388 23.04913413 -0.49981873 17.99295025 -5.71484375 13.8359375 C-8 12 -8 12 -9 10 C-9.4524237 3.77917415 -9.4524237 3.77917415 -7.875 1.0625 C-4.86469573 -0.64333909 -3.44964928 -0.63882394 0 0 Z " fill="#FFD064" transform="translate(257,352)"/>
<path d="M0 0 C3 2 3 2 3.8125 4.875 C4.01563752 8.26062538 3.81254065 9.22724436 2 12 C-0.20703125 13.640625 -0.20703125 13.640625 -2.8125 15.25 C-11.17856924 20.97605603 -13.59271454 27.14802891 -15.51953125 36.984375 C-16.28520473 42.28128542 -16.14161717 47.62372087 -15.88989258 52.95849609 C-15.77423956 56.25442474 -15.74500298 58.53496209 -17.3515625 61.46484375 C-19.58374875 63.54363331 -20.95476455 63.92749439 -24 64 C-28.59701493 61.80597015 -28.59701493 61.80597015 -30 59 C-31.29064252 41.44548158 -31.13657574 24.5004842 -20 10 C-17.50345428 7.40535818 -14.8781514 5.15861355 -12 3 C-11.154375 2.360625 -10.30875 1.72125 -9.4375 1.0625 C-6.1367147 -0.37630385 -3.56024543 -0.32965235 0 0 Z " fill="#FFD064" transform="translate(224,405)"/>
<path d="M0 0 C2.375 1.625 2.375 1.625 4 4 C4.5 7 4.5 7 4 10 C1.09694608 13.64742672 -1.16247202 14.53762593 -5.6875 15.3125 C-15.53396051 17.56448853 -21.05011358 23.25057491 -26.5078125 31.5 C-27.86426205 33.77258563 -29.05414614 36.04779264 -30.1875 38.4375 C-32.81037924 43.59281437 -32.81037924 43.59281437 -36 45 C-39.44266385 44.92974155 -41.28353249 44.60090824 -43.9375 42.375 C-45.47500189 38.93823107 -45.13842542 36.46673051 -44 33 C-38.33389471 20.03449928 -29.10604495 8.00428196 -15.6875 2.6875 C-10.36150104 0.94444579 -5.64789969 -0.40799275 0 0 Z " fill="#FFD064" transform="translate(395,390)"/>
<path d="M0 0 C7.41599908 1.85136998 13.29496559 4.96545417 19 10 C19.65613281 10.55171875 20.31226563 11.1034375 20.98828125 11.671875 C27.54348279 17.62883485 35.59149992 28.38312387 36.25 37.4375 C36 41 36 41 34.9375 42.9375 C31.88023824 44.6140629 29.4093712 44.36528977 26 44 C22.81618229 41.61626083 21.39940727 38.16806811 19.625 34.6875 C15.16554893 26.30744821 10.67478171 20.34387425 2 16 C-1.12233781 15.1040248 -4.20113656 14.40599891 -7.3984375 13.8359375 C-10.53500964 12.82809 -11.46383936 11.8829316 -13 9 C-12.875 5.375 -12.875 5.375 -12 2 C-7.87833436 -0.74777709 -4.8395672 -0.58220357 0 0 Z " fill="#FFD064" transform="translate(147,369)"/>
<path d="M0 0 C2.4375 1.5625 2.4375 1.5625 4 4 C3.8481284 10.56422787 0.98440629 15.26363184 -2.3125 20.8125 C-2.79912109 21.67037109 -3.28574219 22.52824219 -3.78710938 23.41210938 C-7.95703012 30.54531162 -7.95703012 30.54531162 -12 32 C-17.43478261 31.56521739 -17.43478261 31.56521739 -20 29 C-20.9561508 21.66133829 -18.476761 17.27956263 -14.6875 11.125 C-14.18798828 10.27164063 -13.68847656 9.41828125 -13.17382812 8.5390625 C-9.68338694 2.69546296 -7.46467365 -0.91404167 0 0 Z " fill="#FFD064" transform="translate(195,31)"/>
<path d="M0 0 C1.71316406 -0.00580078 1.71316406 -0.00580078 3.4609375 -0.01171875 C5.24371094 0.00568359 5.24371094 0.00568359 7.0625 0.0234375 C8.25101563 0.01183594 9.43953125 0.00023438 10.6640625 -0.01171875 C11.80617187 -0.00785156 12.94828125 -0.00398438 14.125 0 C15.68927734 0.00507568 15.68927734 0.00507568 17.28515625 0.01025391 C20.41926744 0.44830215 21.79849799 1.22422406 24.0625 3.3984375 C24.59375 5.3359375 24.59375 5.3359375 24.5625 7.3984375 C24.5728125 8.0790625 24.583125 8.7596875 24.59375 9.4609375 C23.82467858 12.26578621 22.53049618 12.9165058 20.0625 14.3984375 C17.28515625 14.78662109 17.28515625 14.78662109 14.125 14.796875 C12.41183594 14.80267578 12.41183594 14.80267578 10.6640625 14.80859375 C9.47554687 14.79699219 8.28703125 14.78539062 7.0625 14.7734375 C5.27972656 14.79083984 5.27972656 14.79083984 3.4609375 14.80859375 C2.31882813 14.80472656 1.17671875 14.80085937 0 14.796875 C-1.56427734 14.79179932 -1.56427734 14.79179932 -3.16015625 14.78662109 C-6.29426744 14.34857285 -7.67349799 13.57265094 -9.9375 11.3984375 C-10.46875 9.4609375 -10.46875 9.4609375 -10.4375 7.3984375 C-10.4478125 6.7178125 -10.458125 6.0371875 -10.46875 5.3359375 C-9.09010067 0.30792229 -4.52882205 0.01469488 0 0 Z " fill="#FFD064" transform="translate(228.9375,126.6015625)"/>
<path d="M0 0 C1.03253906 -0.01160156 2.06507812 -0.02320312 3.12890625 -0.03515625 C12.81577932 0.00234132 12.81577932 0.00234132 16.5 3.375 C17.5625 6.8125 17.5625 6.8125 17.5 10.375 C15.38037807 13.24121976 14.16887099 14.25433913 10.63085938 14.89257812 C9.54611328 14.89708984 8.46136719 14.90160156 7.34375 14.90625 C6.15652344 14.91140625 4.96929687 14.9165625 3.74609375 14.921875 C2.50988281 14.90640625 1.27367187 14.8909375 0 14.875 C-1.23621094 14.89046875 -2.47242188 14.9059375 -3.74609375 14.921875 C-5.52693359 14.91414062 -5.52693359 14.91414062 -7.34375 14.90625 C-8.42849609 14.90173828 -9.51324219 14.89722656 -10.63085938 14.89257812 C-14.16887099 14.25433913 -15.38037807 13.24121976 -17.5 10.375 C-17.5625 6.8125 -17.5625 6.8125 -16.5 3.375 C-11.86165827 -0.87109296 -5.90256952 -0.06632101 0 0 Z " fill="#FFD065" transform="translate(35.5,124.625)"/>
<path d="M0 0 C2 1.5625 2 1.5625 3 4 C3.25 7.375 3.25 7.375 2 11 C-0.70375726 13.50654203 -3.80458676 15.18835545 -7 17 C-8.00804687 17.63679688 -9.01609375 18.27359375 -10.0546875 18.9296875 C-19.2134497 24.61679919 -19.2134497 24.61679919 -25 24 C-28.04743295 21.9149143 -28.85563059 20.67853624 -29.625 17.0625 C-28.6593543 12.33083605 -24.97144556 10.30499455 -21.12011719 7.75561523 C-19.12427479 6.52076855 -17.10265148 5.34751044 -15.0625 4.1875 C-14.38509766 3.78080078 -13.70769531 3.37410156 -13.00976562 2.95507812 C-8.53005989 0.3995413 -5.28873763 -0.60896604 0 0 Z " fill="#FFD064" transform="translate(236,72)"/>
<path d="M0 0 C3.38996823 1.50698379 6.5189122 3.39001329 9.6875 5.3125 C10.54150391 5.81201172 11.39550781 6.31152344 12.27539062 6.82617188 C19.69687165 11.22775724 19.69687165 11.22775724 22 14 C22.42030443 17.29238472 22.295454 19.33957342 20.9375 22.375 C18.6292576 24.31094524 17.07080207 24.45630572 14.10180664 24.38330078 C9.70159571 23.58084624 6.02510671 21.043071 2.25 18.75 C1.40050781 18.25886719 0.55101562 17.76773438 -0.32421875 17.26171875 C-7.58571801 12.9598827 -7.58571801 12.9598827 -10 9 C-9.87177883 5.85858144 -9.4995896 3.78882568 -7.8125 1.125 C-4.98277135 -0.6313833 -3.3315213 -0.38383299 0 0 Z " fill="#FFD064" transform="translate(216,172)"/>
<path d="M0 0 C4.0922656 3.32014002 6.5792579 7.78582353 9.25 12.25 C9.70890625 12.97574219 10.1678125 13.70148437 10.640625 14.44921875 C13.70918075 19.57261093 14.65777369 23.02793588 14 29 C12.4375 31.0625 12.4375 31.0625 10 32 C6.60546875 31.93359375 6.60546875 31.93359375 3 31 C0.7421875 28.375 0.7421875 28.375 -1.125 25 C-1.45556396 24.41275146 -1.78612793 23.82550293 -2.12670898 23.22045898 C-3.09837457 21.48803014 -4.04954446 19.74415537 -5 18 C-5.54527344 17.12472656 -6.09054688 16.24945313 -6.65234375 15.34765625 C-8.81476956 11.84344823 -10 9.80511919 -10 5.625 C-7.96970319 0.29547088 -5.73498365 -0.81928338 0 0 Z " fill="#FFD064" transform="translate(84,30)"/>
<path d="M0 0 C1.9375 1.0625 1.9375 1.0625 3 3 C3.6875 6.3125 3.6875 6.3125 3 10 C0.70910835 12.57806895 -2.06936021 14.21827872 -5 16 C-5.97582031 16.62519531 -6.95164062 17.25039062 -7.95703125 17.89453125 C-18.23181493 24.24034104 -18.23181493 24.24034104 -24 24 C-26.93851805 22.6080704 -27.74788158 21.63869999 -28.9375 18.625 C-29.02359036 15.00920476 -28.22873573 13.88941161 -26 11 C-23.0615063 8.8016518 -19.93755237 6.99893909 -16.75 5.1875 C-15.91597656 4.68541016 -15.08195312 4.18332031 -14.22265625 3.66601562 C-9.21907113 0.7793319 -5.79106988 -0.75111153 0 0 Z " fill="#FFD064" transform="translate(61,171)"/>
<path d="M0 0 C4.15991024 1.29093788 7.70787404 3.73369546 11.35009766 6.06982422 C12.16027344 6.57320313 12.97044922 7.07658203 13.80517578 7.59521484 C19.69037737 11.28510393 19.69037737 11.28510393 22.03759766 13.63232422 C22.58346922 19.63691137 22.58346922 19.63691137 20.97509766 22.56982422 C18.00045049 24.20108234 15.30239818 24.19017316 12.03759766 23.63232422 C8.59980928 22.20698866 5.47185025 20.36177381 2.28759766 18.44482422 C1.43810547 17.96207031 0.58861328 17.47931641 -0.28662109 16.98193359 C-8.1856653 12.3336019 -8.1856653 12.3336019 -9.96240234 7.63232422 C-9.33740234 4.44482422 -9.33740234 4.44482422 -7.96240234 1.63232422 C-4.77712634 -0.49119311 -3.66874636 -0.65695931 0 0 Z " fill="#FFD064" transform="translate(42.96240234375,70.36767578125)"/>
<path d="M0 0 C2.61593153 1.83115207 2.96989455 2.90968366 4 6 C4.23062719 9.62104069 4.18516562 13.24737685 4.1875 16.875 C4.19974609 17.86886719 4.21199219 18.86273438 4.22460938 19.88671875 C4.22750977 21.33111328 4.22750977 21.33111328 4.23046875 22.8046875 C4.23457764 23.68108887 4.23868652 24.55749023 4.24291992 25.46044922 C3.96988832 28.3147957 3.27250302 30.43597215 2 33 C-1.04983996 34.52491998 -3.6423369 34.23562548 -7 34 C-8.69775391 32.87890625 -8.69775391 32.87890625 -10 31 C-10.38818359 28.13671875 -10.38818359 28.13671875 -10.3984375 24.6875 C-10.40230469 23.44742188 -10.40617188 22.20734375 -10.41015625 20.9296875 C-10.39855469 19.63289063 -10.38695312 18.33609375 -10.375 17 C-10.38660156 15.70320313 -10.39820313 14.40640625 -10.41015625 13.0703125 C-10.40628906 11.83023437 -10.40242187 10.59015625 -10.3984375 9.3125 C-10.39505371 8.17425781 -10.39166992 7.03601563 -10.38818359 5.86328125 C-10 3 -10 3 -8.69384766 1.12890625 C-5.8374542 -0.77480711 -3.31184429 -0.35484046 0 0 Z " fill="#FFCE63" transform="translate(140,16)"/>
</svg>
