<?xml version="1.0" encoding="UTF-8"?>
<svg version="1.1" xmlns="http://www.w3.org/2000/svg" width="512" height="512">
<path d="M0 0 C1.24907135 0.00081573 1.24907135 0.00081573 2.52337646 0.00164795 C30.61581877 0.08568661 56.37521342 6.05832006 81.625 18.375 C82.59663086 18.84244629 82.59663086 18.84244629 83.58789062 19.31933594 C98.40910989 26.53151524 111.6576214 36.06880254 123.625 47.375 C124.95441948 48.50462233 126.28763718 49.62979312 127.625 50.75 C157.94114304 77.36016162 175.94269417 118.09426138 181.625 157.375 C181.7266748 158.05344971 181.82834961 158.73189941 181.93310547 159.4309082 C184.43666763 178.4843104 183.77792218 199.62901524 179.625 218.375 C179.32698486 219.74011719 179.32698486 219.74011719 179.02294922 221.1328125 C169.90089842 261.69348182 148.39504439 293.32201037 119 321.9296875 C109.22879445 331.99017216 104.53174183 344.3107967 104.4831543 358.29760742 C104.47611984 359.44287399 104.46908539 360.58814056 104.46183777 361.76811218 C104.45559135 363.60572868 104.45559135 363.60572868 104.44921875 365.48046875 C104.42601719 368.09961738 104.40189972 370.71875803 104.37695312 373.33789062 C104.34067865 377.44767266 104.31083102 381.55730565 104.29907227 385.66723633 C104.28694627 389.64692165 104.24326364 393.62600578 104.19921875 397.60546875 C104.20112717 398.82042526 104.20303558 400.03538177 104.20500183 401.28715515 C104.04686962 412.42029038 101.04871856 421.31111232 94.625 430.375 C94.026875 431.24125 93.42875 432.1075 92.8125 433 C90.78605768 435.20013738 89.10184444 436.35436426 86.61328125 437.9375 C83.42815136 440.3039258 82.06155699 441.8704918 81.25 445.7734375 C81.01628671 447.42890662 80.80901731 449.08827272 80.625 450.75 C77.63332811 469.95125414 66.73234366 487.23387898 51.125 498.875 C36.22141477 508.93152256 20.97880889 512.91943465 3.1628418 512.82104492 C0.82575816 512.8125482 -1.50885984 512.84137834 -3.84570312 512.87304688 C-25.66157747 512.97749858 -43.93994894 505.2690423 -59.703125 490.140625 C-69.15164749 480.30644853 -77.10313438 467.04312958 -78.9609375 453.3828125 C-79.76670448 445.69302814 -79.76670448 445.69302814 -83.3515625 439.078125 C-85.66106346 437.35174305 -85.66106346 437.35174305 -88.09375 435.87109375 C-95.21392465 431.20152715 -99.69757817 421.6721931 -101.93991089 413.66755676 C-102.90262292 408.59486725 -102.6745211 403.38738245 -102.68359375 398.2421875 C-102.70876332 395.63541452 -102.7341612 393.02864374 -102.75976562 390.421875 C-102.79040509 386.34085082 -102.81265753 382.25980559 -102.83129883 378.17871094 C-102.85045541 374.22053031 -102.89257846 370.26270177 -102.93359375 366.3046875 C-102.93376747 364.50244217 -102.93376747 364.50244217 -102.9339447 362.66378784 C-103.12176124 346.36352435 -107.36896842 332.57335167 -118.375 320.375 C-120.2716688 318.58897021 -122.22634867 316.90477746 -124.21875 315.2265625 C-157.74932822 286.43400077 -177.09584657 241.7312006 -181.375 198.375 C-181.6516288 193.16257483 -181.70950802 187.96908976 -181.6875 182.75 C-181.68567719 182.05734039 -181.68385437 181.36468079 -181.68197632 180.65103149 C-181.57428707 156.18733251 -176.85710255 132.94007377 -167.375 110.375 C-166.95226807 109.36687256 -166.95226807 109.36687256 -166.52099609 108.33837891 C-159.40283338 91.68478674 -149.92347724 76.26584514 -137.72070312 62.86035156 C-136.37037392 61.36989386 -135.05089897 59.85627888 -133.734375 58.3359375 C-100.34829516 20.2303916 -50.12772364 -0.1236488 0 0 Z M-28 17.0625 C-28.95293945 17.24329102 -29.90587891 17.42408203 -30.88769531 17.61035156 C-64.59317463 24.23409323 -93.80635047 40.50531632 -118.375 64.375 C-118.92752441 64.90561035 -119.48004883 65.4362207 -120.04931641 65.98291016 C-146.74522432 92.03253474 -165.3660472 132.59301274 -166.45288086 170.05981445 C-166.47269638 172.85331328 -166.4625705 175.64402538 -166.4375 178.4375 C-166.416875 181.716875 -166.39625 184.99625 -166.375 188.375 C-153.835 188.375 -141.295 188.375 -128.375 188.375 C-127.715 183.095 -127.055 177.815 -126.375 172.375 C-121.0551381 159.84376976 -114.51387694 151.48261919 -101.63671875 146.265625 C-90.22663855 142.76499258 -79.29602949 143.63315079 -68.375 148.375 C-58.55465418 153.77428457 -52.46871202 161.38045697 -48.5 171.8125 C-47.375 176.375 -47.375 176.375 -46.375 188.375 C-33.175 188.375 -19.975 188.375 -6.375 188.375 C-6.33761719 184.65605469 -6.30023438 180.93710938 -6.26171875 177.10546875 C-6.21553314 173.51125133 -6.16428859 169.91713929 -6.11254883 166.32299805 C-6.07925529 163.82143535 -6.05123732 161.31979673 -6.02856445 158.81811523 C-5.9951004 155.22606998 -5.94278757 151.63472334 -5.88671875 148.04296875 C-5.87713387 146.36003975 -5.87713387 146.36003975 -5.86735535 144.64311218 C-5.83766411 143.08183342 -5.83766411 143.08183342 -5.80737305 141.48901367 C-5.79071846 140.1133448 -5.79071846 140.1133448 -5.77372742 138.70988464 C-5.30243167 135.95005137 -4.59711583 135.03095211 -2.375 133.375 C-0.5 133.30078125 -0.5 133.30078125 1.625 133.6875 C12.78485643 135.2817652 20.42651028 134.54706039 29.875 128.1875 C35.30687187 122.6321765 38.35056251 116.42295299 38.875 108.6875 C38.6887148 100.30466613 35.63242056 94.33336127 29.84765625 88.328125 C23.35337825 82.62137807 17.21131648 81.94015261 8.73828125 82.13671875 C5.60674421 82.29885955 5.60674421 82.29885955 2.54296875 83.08203125 C-1.21520176 83.45935761 -2.46433363 82.73493513 -5.375 80.375 C-6.01423645 77.54658508 -6.01423645 77.54658508 -6.03442383 74.06762695 C-6.05406693 72.76650467 -6.07371002 71.46538239 -6.09394836 70.12483215 C-6.09050488 68.70431381 -6.08651974 67.28379668 -6.08203125 65.86328125 C-6.09514513 64.41023179 -6.11044841 62.95720057 -6.12785339 61.50419617 C-6.16775397 57.68185845 -6.17789695 53.85999701 -6.18188477 50.03747559 C-6.1912069 46.1361644 -6.22861447 42.23513417 -6.26367188 38.33398438 C-6.32829888 30.68098732 -6.36149677 23.02827609 -6.375 15.375 C-8.0981005 15.35592286 -9.8212637 15.34247018 -11.54443359 15.33129883 C-12.98379776 15.31913078 -12.98379776 15.31913078 -14.45223999 15.30671692 C-19.05994665 15.41436462 -23.48326488 16.19182375 -28 17.0625 Z M7.625 15.375 C7.625 32.535 7.625 49.695 7.625 67.375 C11.915 67.705 16.205 68.035 20.625 68.375 C33.45356952 72.13990627 41.75066984 77.71290107 48.625 89.375 C49.94104399 92.33040674 50.88067225 95.23085692 51.625 98.375 C51.9653125 99.6125 51.9653125 99.6125 52.3125 100.875 C53.83001755 113.01514038 51.1540538 124.60535251 43.625 134.375 C33.30937656 145.8166954 23.12825336 147.43709333 7.625 149.375 C7.625 162.245 7.625 175.115 7.625 188.375 C13.07773437 188.44847656 13.07773437 188.44847656 18.640625 188.5234375 C22.15873353 188.57743692 25.67677358 188.63474857 29.19482422 188.69238281 C31.64106145 188.73068134 34.08735516 188.76553264 36.53369141 188.796875 C40.04870806 188.84250605 43.56333555 188.90050457 47.078125 188.9609375 C48.1730426 188.97248871 49.26796021 188.98403992 50.39605713 188.99594116 C51.41681335 189.01581085 52.43756958 189.03568054 53.48925781 189.05615234 C54.38638489 189.06947601 55.28351196 189.08279968 56.20782471 189.0965271 C58.82863218 189.39845963 60.45203351 189.87885725 62.625 191.375 C63.61429852 195.48439386 63.65049484 198.36284502 62.625 202.375 C61.70981109 210.55940371 63.08855267 216.4955524 67.625 223.375 C71.46360048 227.90258006 75.9515582 231.48385273 81.625 233.375 C91.68932727 234.15508128 98.53953571 233.63259801 106.3125 227.125 C113.10664557 219.04547553 115.02616329 212.86255461 114.625 202.375 C114.43851318 200.89292056 114.23297159 199.41298671 114 197.9375 C113.48546512 193.0494186 113.48546512 193.0494186 115.625 190.375 C118.5164023 189.41119923 120.45153923 189.22387976 123.46362305 189.16967773 C124.4444133 189.14973251 125.42520355 189.12978729 126.43571472 189.10923767 C127.49204605 189.09252518 128.54837738 189.07581268 129.63671875 189.05859375 C130.72008011 189.03781265 131.80344147 189.01703156 132.91963196 188.99562073 C136.38385616 188.93018203 139.8481568 188.87126647 143.3125 188.8125 C145.65951315 188.76930939 148.00651853 188.72569493 150.35351562 188.68164062 C156.11059604 188.57450643 161.86775267 188.47272936 167.625 188.375 C167.65821851 185.08335802 167.67784443 181.79176027 167.6953125 178.5 C167.70473877 177.5821875 167.71416504 176.664375 167.72387695 175.71875 C167.89178105 133.33229434 147.6572154 93.25735347 118.625 63.375 C118.09729004 62.82392578 117.56958008 62.27285156 117.02587891 61.70507812 C112.83575123 57.40228073 108.40876737 53.62613564 103.625 50 C102.51415039 49.15755737 102.51415039 49.15755737 101.38085938 48.2980957 C74.3961692 28.14311309 41.47199014 15.375 7.625 15.375 Z M-108.375 168.375 C-113.76644186 175.83887472 -114.30443457 183.78148185 -113.04296875 192.73046875 C-112.92566406 193.41753906 -112.80835938 194.10460937 -112.6875 194.8125 C-112.375 198.375 -112.375 198.375 -113.5473175 200.5635376 C-115.89685588 202.89222458 -117.0345961 202.88794303 -120.30541992 202.92089844 C-121.30623093 202.94061707 -122.30704193 202.96033569 -123.33818054 202.98065186 C-124.9554882 202.98249481 -124.9554882 202.98249481 -126.60546875 202.984375 C-127.71102615 203.00091125 -128.81658356 203.01744751 -129.9556427 203.03448486 C-133.49131743 203.08312082 -137.02656158 203.10437109 -140.5625 203.125 C-142.95770414 203.15314652 -145.35288808 203.18307207 -147.74804688 203.21484375 C-153.62361934 203.28888388 -159.49906993 203.34043486 -165.375 203.375 C-164.92540367 206.19876052 -164.47013948 209.02141975 -164.01171875 211.84375 C-163.88696167 212.63104492 -163.76220459 213.41833984 -163.63366699 214.22949219 C-161.1855467 229.20261097 -155.95774656 242.76172323 -149.375 256.375 C-148.83101562 257.50550781 -148.28703125 258.63601563 -147.7265625 259.80078125 C-139.46689631 275.97763966 -128.19426368 289.866799 -115.1875 302.43359375 C-90.66440448 326.20715682 -88.66965752 344.41924687 -87.375 379.375 C-60.645 379.375 -33.915 379.375 -6.375 379.375 C-6.375 361.555 -6.375 343.735 -6.375 325.375 C-11.655 324.715 -16.935 324.055 -22.375 323.375 C-33.77760931 319.67325363 -41.39095211 312.98726719 -47.25 302.6875 C-51.77712704 292.78920529 -52.48985687 281.76704461 -49.375 271.375 C-44.66227548 259.02334945 -37.95337849 252.1344105 -26.109375 246.50390625 C-19.36393304 243.71900235 -14.22812455 243.9790865 -6.375 243.375 C-6.375 230.175 -6.375 216.975 -6.375 203.375 C-12.06169922 203.33632812 -12.06169922 203.33632812 -17.86328125 203.296875 C-21.52701306 203.25848452 -25.1906027 203.21331443 -28.85424805 203.16748047 C-31.40430945 203.13922044 -33.95445926 203.11803112 -36.50463867 203.10400391 C-40.16631506 203.08264472 -43.82692264 203.03602828 -47.48828125 202.984375 C-48.6321077 202.98314636 -49.77593414 202.98191772 -50.954422 202.98065186 C-52.01529526 202.96093323 -53.07616852 202.9412146 -54.16918945 202.92089844 C-55.10406693 202.91201599 -56.0389444 202.90313354 -57.00215149 202.89398193 C-59.375 202.375 -59.375 202.375 -61.21989441 200.5635376 C-62.70581325 197.74821986 -62.22277505 195.77955282 -61.71484375 192.71484375 C-60.46859197 184.13432864 -60.83540299 176.47838723 -65.8515625 169.24609375 C-70.60417861 163.35415186 -75.9572722 159.93126838 -83.375 158.375 C-93.73569342 157.67258011 -101.34057803 160.62440385 -108.375 168.375 Z M7.625 203.375 C7.61082031 207.16613281 7.59664062 210.95726562 7.58203125 214.86328125 C7.55143507 218.52702818 7.51233974 222.19059235 7.47241211 225.85424805 C7.44918689 228.40431272 7.43482586 230.95447392 7.42944336 233.50463867 C7.42018733 237.16646813 7.37926672 240.8267695 7.33203125 244.48828125 C7.33793022 246.20402092 7.33793022 246.20402092 7.34394836 247.954422 C7.31448372 249.54573189 7.31448372 249.54573189 7.28442383 251.16918945 C7.27776199 252.10406693 7.27110016 253.0389444 7.26423645 254.00215149 C6.625 256.375 6.625 256.375 4.2664032 258.21842957 C0.89291833 259.69555084 -0.82490965 259.19494472 -4.375 258.375 C-13.16794822 257.59390054 -20.08314078 258.10794528 -27.375 263.375 C-33.17084669 268.3162606 -36.2742724 273.83042959 -37.375 281.375 C-37.74493793 288.79687974 -35.62545195 295.29842796 -31.375 301.375 C-25.93980335 306.78740756 -19.3254413 310.50389327 -11.5625 310.625 C-7.16087668 310.51058471 -2.85030463 309.99146093 1.49609375 309.30078125 C3.625 309.375 3.625 309.375 5.23103333 310.47395325 C7.2701791 313.25487443 7.02524619 315.44124338 7.05737305 318.8659668 C7.06764684 319.53044484 7.07792063 320.19492289 7.08850574 320.87953663 C7.1183666 323.02785681 7.12793078 325.1757198 7.13671875 327.32421875 C7.15335571 328.63829712 7.16999268 329.95237549 7.18713379 331.30627441 C7.2450594 336.22485271 7.27721651 341.14370717 7.3125 346.0625 C7.415625 357.055625 7.51875 368.04875 7.625 379.375 C34.355 379.375 61.085 379.375 88.625 379.375 C88.955 370.465 89.285 361.555 89.625 352.375 C92.39396026 332.43848611 100.13578659 318.08518841 114.66870117 304.3168335 C124.97187001 294.51514281 134.05021296 284.47851726 141.625 272.375 C142.01526367 271.7547998 142.40552734 271.13459961 142.80761719 270.49560547 C154.55108512 251.53128454 166.625 226.15058615 166.625 203.375 C154.415 203.375 142.205 203.375 129.625 203.375 C128.965 208.655 128.305 213.935 127.625 219.375 C124.13529849 229.34557573 117.8463171 238.54403008 108.3203125 243.59765625 C97.74514441 248.43449543 84.64436941 249.52748668 73.5 245.75 C62.78927693 241.07533526 55.07854165 233.13234699 50.625 222.375 C48.22943079 215.81870533 48.24486116 210.81333389 47.625 203.375 C34.425 203.375 21.225 203.375 7.625 203.375 Z M-87.375 394.375 C-87.42805094 410.67341949 -87.42805094 410.67341949 -79.4765625 423.56640625 C-70.41713081 432.14242953 -59.77720767 432.52382578 -47.86865234 432.53613281 C-46.71662323 432.54109772 -45.56459412 432.54606262 -44.37765503 432.55117798 C-40.5720764 432.56576419 -36.76653948 432.57259633 -32.9609375 432.578125 C-30.97881109 432.5824246 -28.99668468 432.58672475 -27.01455843 432.5910995 C-21.49070199 432.60289518 -15.96685556 432.61044215 -10.4429878 432.6138947 C-3.32864043 432.61836726 3.78551404 432.63588368 10.8998028 432.6648953 C16.41854091 432.68660904 21.93722514 432.69660417 27.45600545 432.69793582 C30.74279619 432.69897727 34.02936549 432.70622046 37.31612015 432.72275543 C40.99165457 432.73992396 44.66672625 432.73790891 48.34228516 432.73144531 C49.4118042 432.7406601 50.48132324 432.74987488 51.58325195 432.7593689 C61.27614546 432.70631734 71.20596542 431.59043305 78.875 425.18359375 C88.07814124 415.67231162 88.625 408.07431899 88.625 394.375 C30.545 394.375 -27.535 394.375 -87.375 394.375 Z M-64.375 446.375 C-62.40537742 462.13198064 -54.66632876 475.26879635 -42.375 485.375 C-31.150317 493.01647101 -19.08728248 497.884514 -5.375 498.375 C-4.45332031 498.41496094 -3.53164062 498.45492187 -2.58203125 498.49609375 C16.96823774 498.93513546 34.90888079 493.89946279 49.375 480.3125 C57.99549915 471.25599295 65.625 459.15186057 65.625 446.375 C22.725 446.375 -20.175 446.375 -64.375 446.375 Z " fill="#FFC106" transform="translate(255.375,-0.375)"/>
</svg>
